# xmcd CD database file
#
# Track frame offsets:
#	150
#	21198
#	42153
#	64281
#	83793
#	103194
#	128350
#	141119
#	163038
#	181431
#	200994
#	224849
#	241491
#	266774
#
# Disc length: 3694 seconds
#
# Revision: 0
# Processed by: cddbd v1.5PL3 Copyright (c) Steve Scherf et al.
# Submitted via: CDex 1.51
#
DISCID=d70e6c0e
DTITLE=Blue Shaddy - Blue Shaddy
DYEAR=1999
DGENRE=Blues
TTITLE0=Got To Believe It
TTITLE1=Walk On
TTITLE2=Slide Stoned
TTITLE3=So Long
TTITLE4=Bad World
TTITLE5=Make It Home
TTITLE6=Surfin'
TTITLE7=Rain Down
TTITLE8=There's A Man
TTITLE9=She's Got What
TTITLE10=Commin' Down
TTITLE11=Jazz
TTITLE12=Fry Pan
TTITLE13=Dirk Diggler (Part 1)
EXTD=YEAR: 1999
EXTT0=
EXTT1=
EXTT2=
EXTT3=
EXTT4=
EXTT5=
EXTT6=
EXTT7=
EXTT8=
EXTT9=
EXTT10=
EXTT11=
EXTT12=
EXTT13=
PLAYORDER=
